HIERARCHY
ROOT SimulationBone
{
	OFFSET 0.000000 0.000000 0.000000
	CHANNELS 6 Xposition Yposition Zposition Zrotation Yrotation Xrotation 
	JOINT Hips
	{
		OFFSET 0.000000 0.000000 0.000000
		CHANNELS 6 Xposition Yposition Zposition Zrotation Yrotation Xrotation 
		JOINT RightUpLeg
		{
			OFFSET 0.103458 1.857831 10.548505
			CHANNELS 3 Zrotation Yrotation Xrotation
			JOINT RightLeg
			{
				OFFSET 43.500000 -0.000031 0.000002
				CHANNELS 3 Zrotation Yrotation Xrotation
				JOINT RightFoot
				{
					OFFSET 42.372200 0.000023 0.000003
					CHANNELS 3 Zrotation Yrotation Xrotation
					JOINT RightToe
					{
						OFFSET 17.299997 -0.000001 -0.000010
						CHANNELS 3 Zrotation Yrotation Xrotation
						End Site
						{
							OFFSET 0.000000 0.000000 0.000000
						}
					}
				}
			}
		}
		JOINT LeftUpLeg
		{
			OFFSET 0.103457 1.857828 -10.548510
			CHANNELS 3 Zrotation Yrotation Xrotation
			JOINT LeftLeg
			{
				OFFSET 43.500046 -0.000015 0.000002
				CHANNELS 3 Zrotation Yrotation Xrotation
				JOINT LeftFoot
				{
					OFFSET 42.372261 -0.000008 0.000023
					CHANNELS 3 Zrotation Yrotation Xrotation
					JOINT LeftToe
					{
						OFFSET 17.299990 -0.000007 -0.000002
						CHANNELS 3 Zrotation Yrotation Xrotation
						End Site
						{
							OFFSET 0.000000 0.000000 0.000000
						}
					}
				}
			}
		}
		JOINT Spine
		{
			OFFSET 6.901967 -2.603726 -0.000001
			CHANNELS 3 Zrotation Yrotation Xrotation
			JOINT Spine1
			{
				OFFSET 12.588100 -0.000009 -0.000003
				CHANNELS 3 Zrotation Yrotation Xrotation
				JOINT Spine2
				{
					OFFSET 12.343202 0.000008 0.000008
					CHANNELS 3 Zrotation Yrotation Xrotation
					JOINT Neck
					{
						OFFSET 25.832897 -0.000015 -0.000004
						CHANNELS 3 Zrotation Yrotation Xrotation
						JOINT Head
						{
							OFFSET 11.766609 0.000013 -0.000006
							CHANNELS 3 Zrotation Yrotation Xrotation
							End Site
							{
								OFFSET 0.000000 0.000000 0.000000
							}
						}
					}
					JOINT RightShoulder
					{
						OFFSET 19.745911 -1.480373 6.000098
						CHANNELS 3 Zrotation Yrotation Xrotation
						JOINT RightArm
						{
							OFFSET 11.284123 -0.000007 -0.000032
							CHANNELS 3 Zrotation Yrotation Xrotation
							JOINT RightForeArm
							{
								OFFSET 33.000050 0.000005 0.000031
								CHANNELS 3 Zrotation Yrotation Xrotation
								JOINT RightHand
								{
									OFFSET 25.200008 0.000017 0.000013
									CHANNELS 3 Zrotation Yrotation Xrotation
									End Site
									{
										OFFSET 0.000000 0.000000 0.000000
									}
								}
							}
						}
					}
					JOINT LeftShoulder
					{
						OFFSET 19.746092 -1.480379 -6.000077
						CHANNELS 3 Zrotation Yrotation Xrotation
						JOINT LeftArm
						{
							OFFSET 11.284136 -0.000017 -0.000017
							CHANNELS 3 Zrotation Yrotation Xrotation
							JOINT LeftForeArm
							{
								OFFSET 33.000099 0.000019 0.000015
								CHANNELS 3 Zrotation Yrotation Xrotation
								JOINT LeftHand
								{
									OFFSET 25.199780 0.000140 0.000408
									CHANNELS 3 Zrotation Yrotation Xrotation
									End Site
									{
										OFFSET 0.000000 0.000000 0.000000
									}
								}
							}
						}
					}
				}
			}
		}
	}
}
MOTION
Frames: 14
Frame Time: 0.016667
-170.932723 0.000000 -78.024057 0.000000 33.120524 0.000000 3.238015 89.666656 0.429196 97.524238 2.775592 178.571403 171.850237 -9.236606 -151.388915 -25.218564 -5.034196 -2.095194 80.987362 -0.600470 -9.475508 21.454558 0.003108 0.000017 176.513180 -7.609212 161.941927 -25.496065 4.660562 -3.021587 78.218943 0.040693 -7.252549 21.454550 -0.003084 0.000001 6.918315 0.980879 -0.448311 3.816883 1.975881 -0.864550 3.498627 1.970484 -0.876476 18.733887 -4.052044 -14.436440 -23.809688 2.290235 -16.509609 -163.564096 -69.788370 -18.305259 12.837230 58.008713 56.172655 -28.537769 -14.051409 1.167442 6.826372 7.560615 13.245301 -173.515902 73.128789 8.098390 -51.634873 -49.602219 -17.106539 -54.646570 16.401487 -2.000098 -15.864859 18.942309 -43.217915 
-170.976259 0.000000 -78.937989 0.000000 30.863974 0.000000 3.210851 89.592963 0.446664 97.612026 2.626142 178.664448 172.353334 -10.316417 -154.619575 -25.230093 -6.467302 -1.034712 81.610446 -1.097561 -8.663987 21.454560 0.003107 0.000017 176.231119 -7.302380 162.162816 -26.620557 4.255315 -4.471965 78.804358 1.099795 -7.243221 21.454553 -0.003094 -0.000001 6.952504 0.883054 -0.465606 3.885606 1.781103 -0.901759 3.567391 1.775487 -0.912507 18.769449 -4.023007 -14.483068 -23.773873 2.800799 -16.775716 -164.272148 -69.701072 -17.575293 11.242569 57.460578 55.756182 -28.725721 -14.128061 1.175611 6.182202 8.570014 13.201582 -173.270616 72.658519 8.347033 -50.995057 -49.143863 -18.190273 -55.278902 16.528208 -2.030658 -17.353417 19.286095 -44.165408 
-171.009949 0.000000 -79.815121 0.000000 28.665272 0.000000 3.147691 89.552048 0.396191 97.743782 2.130923 178.612068 173.247338 -10.857102 -160.278503 -25.112294 -6.716773 0.917176 81.885416 -2.164060 -7.299008 21.454562 0.003106 0.000017 175.659133 -6.698503 162.921704 -28.262413 3.625479 -6.181550 79.156537 2.301167 -7.336173 21.454555 -0.003106 -0.000002 7.010533 0.708023 -0.475888 4.002729 1.431937 -0.927350 3.684568 1.426176 -0.935985 18.758928 -4.091968 -14.541683 -23.666892 3.332690 -17.060102 -164.968588 -69.656568 -16.856788 9.426137 56.957294 54.914398 -28.721617 -14.251043 1.183627 5.732144 9.185588 13.273547 -172.922331 72.223209 8.702177 -50.487494 -48.766863 -19.116585 -55.394042 16.649588 -2.043085 -18.782026 19.612922 -45.255897 
-171.036141 0.000000 -80.654697 0.000000 26.529745 0.000000 3.039558 89.577676 0.281796 97.799983 1.283879 178.352852 174.451904 -10.519111 -166.625789 -24.700681 -5.806422 2.882201 81.786225 -3.371175 -6.352320 21.454559 0.003106 0.000017 174.591964 -5.863711 163.753470 -30.508686 2.891518 -7.791578 78.914485 3.376269 -7.526018 21.454551 -0.003105 -0.000001 7.059685 0.452565 -0.481602 4.102849 0.921780 -0.947062 3.784745 0.915909 -0.952613 18.758753 -4.158707 -14.617593 -23.662196 3.600310 -17.255331 -165.442971 -69.684847 -16.366962 7.547604 56.559368 53.470576 -28.559897 -14.343966 1.186744 5.801382 9.222053 13.831827 -172.911168 72.000183 8.712295 -50.089693 -48.625606 -19.795616 -54.992602 16.738935 -2.035529 -19.891263 19.951301 -46.507365 
-171.056336 0.000000 -81.455117 0.000000 24.459128 0.000000 2.912872 89.618851 0.123120 97.760283 0.341324 177.977816 175.623015 -9.659803 -171.693388 -24.101164 -4.843192 4.010148 81.597004 -4.068207 -5.815449 21.454557 0.003107 0.000017 173.061926 -4.895997 164.485230 -33.202775 2.388515 -9.157576 78.159930 4.288811 -7.612098 21.454550 -0.003099 0.000000 7.087016 0.177896 -0.490199 4.159627 0.373161 -0.973758 3.841559 0.367136 -0.975995 18.738489 -4.277158 -14.741751 -23.572248 3.673747 -17.414576 -165.801489 -69.734712 -15.996657 5.717013 56.134949 51.715404 -28.276297 -14.383629 1.183963 6.224970 8.719025 14.419696 -173.092430 71.985498 8.525797 -49.744929 -48.699876 -20.282381 -54.147307 16.771097 -2.007637 -20.232581 20.326978 -47.121078 
-171.071192 0.000000 -82.216362 0.000000 22.453986 0.000000 2.797797 89.625890 -0.054165 97.644114 -0.420938 177.599334 176.572951 -8.829998 -174.109290 -23.502836 -4.829562 3.747728 81.585101 -3.791603 -5.479006 21.454559 0.003108 0.000017 171.177198 -3.925391 165.150631 -36.137284 2.360045 -10.224812 77.069760 5.099952 -7.235549 21.454554 -0.003100 -0.000001 7.088427 -0.049622 -0.508482 4.164383 -0.081054 -1.018397 3.846331 -0.087340 -1.017892 18.659657 -4.524515 -14.945600 -23.209981 3.710578 -17.627763 -166.186929 -69.760274 -15.598745 4.043958 55.577111 49.974725 -27.917234 -14.374533 1.176756 6.737626 7.793704 14.570198 -173.259499 72.128872 8.354947 -49.388845 -48.932035 -20.647860 -52.948850 16.740801 -1.963168 -19.515792 20.710798 -46.431618 
-171.080907 0.000000 -82.939849 0.000000 20.514404 0.000000 2.701680 89.639137 -0.204156 97.483706 -0.905161 177.263931 177.417825 -8.254197 -174.990061 -22.860278 -5.366539 2.761158 81.653620 -3.016334 -5.255435 21.454562 0.003109 0.000017 169.134800 -3.139998 166.306760 -39.080470 2.414827 -10.942093 75.743710 6.022421 -5.638803 21.454558 -0.003100 -0.000002 7.075228 -0.207482 -0.536204 4.139520 -0.395804 -1.079408 3.821474 -0.402451 -1.077003 18.537110 -4.916153 -15.237520 -22.744793 3.857035 -17.975308 -166.591304 -69.825608 -15.181116 2.612580 55.018114 48.168460 -27.570054 -14.378928 1.171012 7.146306 6.619159 14.622846 -173.466847 72.377400 8.143499 -48.937543 -49.294345 -20.902948 -51.485582 16.721775 -1.913849 -18.332901 20.822429 -45.170031 
-171.085128 0.000000 -83.628033 0.000000 18.640135 0.000000 2.625312 89.703230 -0.291030 97.306059 -1.099968 177.008577 178.246171 -7.961399 -175.711179 -22.111446 -5.849009 1.835127 81.653865 -2.307731 -5.100498 21.454560 0.003108 0.000018 167.127214 -2.634893 168.428411 -41.821809 2.150063 -11.207003 74.350895 7.226617 -2.304674 21.454554 -0.003092 0.000001 7.059531 -0.293305 -0.574098 4.109146 -0.566208 -1.158145 3.791103 -0.573328 -1.154709 18.400867 -5.415131 -15.607859 -22.406397 4.202977 -18.496942 -166.996357 -69.988055 -14.762465 1.433041 54.567210 46.163313 -27.319267 -14.445524 1.170972 7.331259 5.359739 14.937318 -173.769677 72.663265 7.834387 -48.310256 -49.753371 -21.025822 -49.853858 16.766732 -1.865609 -17.272699 20.454010 -44.167948 
-171.083265 0.000000 -84.284363 0.000000 16.830231 0.000000 2.548301 89.789970 -0.340828 97.100374 -1.157296 176.900878 178.958647 -7.746004 -176.268358 -21.367982 -6.190616 0.961071 81.616689 -1.661917 -5.021346 21.454558 0.003108 0.000018 165.217495 -2.213896 171.075530 -44.329095 1.718567 -10.890113 73.284247 8.395459 1.940832 21.454551 -0.003086 0.000002 7.041447 -0.341386 -0.633387 4.073814 -0.660456 -1.278286 3.755781 -0.668301 -1.274277 18.285456 -5.836914 -15.998002 -22.302396 4.625262 -19.084594 -167.471497 -70.166032 -14.271697 0.350303 54.015955 44.127683 -27.197910 -14.510851 1.172933 7.451938 4.117860 15.123248 -173.946395 72.863812 7.654393 -47.461573 -50.224139 -20.918620 -48.190467 16.763487 -1.809998 -15.918249 19.796038 -43.162102 
-171.074480 0.000000 -84.913089 0.000000 15.082622 0.000000 2.450154 89.858503 -0.384870 96.857068 -1.237879 176.994956 179.457078 -7.411943 -176.476744 -20.760132 -6.417320 0.026074 81.607475 -0.995300 -5.014831 21.454558 0.003110 0.000018 163.445611 -1.675280 173.685285 -46.604957 1.379012 -9.975322 72.810336 9.086734 5.976263 21.454556 -0.003092 -0.000002 7.021163 -0.388630 -0.724720 4.034381 -0.751991 -1.462424 3.716371 -0.760946 -1.457859 18.209032 -6.013592 -16.352378 -22.464917 4.986267 -19.625489 -168.069403 -70.280857 -13.654797 -0.755150 53.160342 42.290069 -27.203037 -14.514224 1.173216 7.683507 2.962123 14.751519 -173.797018 72.872425 7.807876 -46.363774 -50.629286 -20.534216 -46.622474 16.646457 -1.749960 -13.715858 18.975353 -41.699270 
-171.057430 0.000000 -85.518736 0.000000 13.394545 0.000000 2.348710 89.890182 -0.426913 96.637197 -1.381808 177.252164 179.825767 -6.983397 -176.820511 -20.343992 -6.495908 -0.702765 81.648476 -0.472726 -4.991894 21.454560 0.003112 0.000017 161.874855 -0.935699 176.166507 -48.586707 1.237853 -8.837354 72.781156 9.173862 8.750494 21.454562 -0.003100 -0.000005 7.010995 -0.445636 -0.846067 4.015694 -0.861927 -1.706956 3.697716 -0.872355 -1.701724 18.131229 -5.993669 -16.673670 -22.760729 5.312916 -20.127149 -168.712911 -70.407752 -12.991118 -1.843806 52.135465 40.671498 -27.238754 -14.518462 1.174133 7.905993 1.881673 14.013820 -173.544506 72.698200 8.065967 -45.008412 -50.961174 -20.120814 -45.186703 16.702925 -1.714250 -10.592110 17.598158 -39.678736 
-171.029774 0.000000 -86.104538 0.000000 11.762495 0.000000 2.266034 89.876971 -0.466288 96.500376 -1.591135 177.610826 -179.834953 -6.526814 -177.743483 -20.141975 -6.419989 -0.986210 81.753272 -0.241504 -4.872471 21.454559 0.003111 0.000017 160.562177 0.020656 178.525281 -50.187109 1.284299 -7.823420 73.003117 8.691708 9.617575 21.454559 -0.003097 -0.000002 7.022744 -0.513319 -0.987937 4.041440 -0.992161 -1.993066 3.723497 -1.004314 -1.987044 18.015513 -5.892684 -16.981397 -23.037372 5.674892 -20.629486 -169.330177 -70.630969 -12.354762 -2.888111 51.123127 39.208969 -27.212446 -14.596738 1.178676 7.980448 0.869909 13.195818 -173.359283 72.399643 8.254186 -43.442712 -51.232770 -19.828969 -43.861973 17.144794 -1.709349 -6.738693 15.339376 -37.207820 
-170.987505 0.000000 -86.670530 0.000000 10.182592 0.000000 2.202007 89.831078 -0.499019 96.431423 -1.819114 178.010037 -179.516919 -6.090393 -178.860688 -20.109253 -6.332971 -1.076866 81.938418 -0.130205 -4.696981 21.454558 0.003109 0.000018 159.497116 1.049194 -179.312943 -51.311310 1.304889 -6.778842 73.415216 7.861386 9.558099 21.454551 -0.003091 0.000003 7.053967 -0.580397 -1.123558 4.106389 -1.120943 -2.266885 3.788486 -1.134747 -2.260081 17.894312 -5.875773 -17.304931 -23.225355 6.139477 -21.186642 -169.963697 -70.912107 -11.702171 -3.951322 50.148272 37.823893 -27.137532 -14.740151 1.186535 8.031821 0.037282 12.315703 -172.791055 72.112990 8.836491 -41.938071 -51.501343 -19.107614 -42.504188 17.524858 -1.690822 -2.715919 12.759505 -34.594238 
-170.925484 0.000000 -87.213855 0.000000 8.651431 0.000000 2.150424 89.773318 -0.522555 96.404901 -2.004260 178.392012 -179.209936 -5.725073 -179.731735 -20.171158 -6.365903 -1.265847 82.204029 0.054144 -4.522582 21.454556 0.003107 0.000018 158.662687 1.990705 -177.446685 -51.866233 1.158231 -5.474355 73.926476 6.879517 9.629886 21.454541 -0.003089 0.000005 7.098974 -0.633430 -1.225769 4.198551 -1.222383 -2.473611 3.880687 -1.237432 -2.466193 17.822889 -6.035045 -17.660849 -23.309958 6.711421 -21.816053 -170.672128 -71.190084 -10.973019 -5.092687 49.175112 36.476395 -27.045271 -14.913477 1.196032 8.177068 -0.505945 11.314160 -171.478884 71.938281 10.185127 -40.711529 -51.832900 -17.464795 -40.981138 17.408274 -1.636262 1.034516 10.555927 -31.954811 
